HIERARCHY
ROOT Hips
{
	OFFSET -0.179506 -22.333345 2.821913
	CHANNELS 6 Xposition Yposition Zposition Zrotation Yrotation Xrotation 
	JOINT LeftUpLeg
	{
		OFFSET 6.951974 -9.140623 -0.681533
		CHANNELS 3 Zrotation Yrotation Xrotation
		JOINT LeftLeg
		{
			OFFSET 3.427654 -37.519855 -0.449580
			CHANNELS 3 Zrotation Yrotation Xrotation
			JOINT LeftFoot
			{
				OFFSET -1.359570 -39.796059 -4.369333
				CHANNELS 3 Zrotation Yrotation Xrotation
				JOINT LeftToe
				{
					OFFSET 2.635814 -5.579078 11.928840
					CHANNELS 3 Zrotation Yrotation Xrotation
					End Site
					{
						OFFSET 0.000000 0.000000 0.000000
					}
				}
			}
		}
	}
	JOINT RightUpLeg
	{
		OFFSET -6.767048 -9.052170 -0.431982
		CHANNELS 3 Zrotation Yrotation Xrotation
		JOINT RightLeg
		{
			OFFSET -3.829005 -38.256897 -0.885003
			CHANNELS 3 Zrotation Yrotation Xrotation
			JOINT RightFoot
			{
				OFFSET 1.577377 -39.841461 -4.231180
				CHANNELS 3 Zrotation Yrotation Xrotation
				JOINT RightToe
				{
					OFFSET -2.537174 -4.814398 12.334795
					CHANNELS 3 Zrotation Yrotation Xrotation
					End Site
					{
						OFFSET 0.000000 0.000000 0.000000
					}
				}
			}
		}
	}
	JOINT Spine
	{
		OFFSET -0.253288 10.896323 -2.669631
		CHANNELS 3 Zrotation Yrotation Xrotation
		JOINT Spine1
		{
			OFFSET 0.548704 13.518043 0.109247
			CHANNELS 3 Zrotation Yrotation Xrotation
			JOINT Spine2
			{
				OFFSET 0.145701 5.292222 2.542457
				CHANNELS 3 Zrotation Yrotation Xrotation
				JOINT Neck
				{
					OFFSET -0.277840 21.387037 -4.285703
					CHANNELS 3 Zrotation Yrotation Xrotation
					JOINT Head
					{
						OFFSET 0.515184 6.496960 5.134897
						CHANNELS 3 Zrotation Yrotation Xrotation
						End Site
						{
							OFFSET 0.000000 0.000000 0.000000
						}
					}
				}
				JOINT LeftShoulder
				{
					OFFSET 7.884473 12.174932 -3.408961
					CHANNELS 3 Zrotation Yrotation Xrotation
					JOINT LeftArm
					{
						OFFSET 9.097692 3.046888 -0.886815
						CHANNELS 3 Zrotation Yrotation Xrotation
						JOINT LeftForeArm
						{
							OFFSET 25.961220 -1.277207 -2.745643
							CHANNELS 3 Zrotation Yrotation Xrotation
							JOINT LeftHand
							{
								OFFSET 24.923361 0.898606 -0.117091
								CHANNELS 3 Zrotation Yrotation Xrotation
								End Site
								{
									OFFSET 0.000000 0.000000 0.000000
								}
							}
						}
					}
				}
				JOINT RightShoulder
				{
					OFFSET -8.175920 11.883285 -3.861528
					CHANNELS 3 Zrotation Yrotation Xrotation
					JOINT RightArm
					{
						OFFSET -9.601238 3.255117 -0.914307
						CHANNELS 3 Zrotation Yrotation Xrotation
						JOINT RightForeArm
						{
							OFFSET -25.374195 -1.332924 -2.140099
							CHANNELS 3 Zrotation Yrotation Xrotation
							JOINT RightHand
							{
								OFFSET -25.529810 0.777228 -0.555919
								CHANNELS 3 Zrotation Yrotation Xrotation
								End Site
								{
									OFFSET 0.000000 0.000000 0.000000
								}
							}
						}
					}
				}
			}
		}
	}
}
MOTION
Frames: 12
Frame Time: 0.033333
46.300537 30.547716 91.093170 -78.686445 3.333446 80.731800 20.037508 8.781039 -1.203222 0.060912 10.946236 34.846127 -2.992092 2.118648 -25.245660 nan nan nan -15.137747 -12.889240 -10.509091 0.401109 -13.309460 20.073715 8.499791 0.547511 -5.360611 nan nan nan -5.173198 3.379084 10.590063 6.470828 -5.583327 8.747612 2.636034 0.650841 -4.440361 2.088659 -19.572236 4.532212 6.987583 -33.742470 15.313576 -3.358515 -19.709519 -2.865809 -80.611617 -46.867048 37.556581 103.293791 -86.953904 -76.781194 15.047416 -32.493563 -49.821839 13.075096 12.568343 0.532610 35.130638 17.092537 -11.745576 -59.854350 36.826027 -51.035895 8.302180 20.095784 -25.679528 
46.301910 30.559536 91.070229 -78.720438 3.341584 80.714205 20.099673 8.793752 -1.182426 -0.041028 10.907377 34.877136 -3.003314 2.191990 -25.304824 nan nan nan -15.161092 -12.872099 -10.573979 0.457942 -13.303309 20.216105 8.563483 0.479190 -5.494902 nan nan nan -5.035606 3.283832 10.758028 6.367009 -5.441779 8.354528 2.583584 0.617958 -4.059209 2.343388 -19.135420 3.964690 6.657713 -33.443856 15.847635 -3.444966 -19.608337 -3.041203 -80.553201 -46.833927 37.561402 102.126327 -87.092701 -75.612816 15.240344 -32.482529 -49.900993 13.069185 12.448430 0.441171 35.461119 17.389552 -11.538043 -60.041196 36.805130 -51.222829 7.370502 19.874033 -26.004131 
46.283665 30.568377 91.052391 -78.790444 3.295571 80.730535 20.102729 8.845749 -1.138438 -0.115231 10.917423 34.854082 -3.039481 2.227877 -25.364996 nan nan nan -15.208930 -12.850434 -10.704916 0.447038 -13.254744 20.426817 8.619302 0.471965 -5.665083 nan nan nan -4.988561 3.244730 10.795046 6.295336 -5.355656 8.155871 2.551656 0.620665 -3.888699 2.462616 -18.771538 3.812065 6.493215 -33.059665 16.040592 -3.560810 -19.584119 -3.084214 -80.468924 -46.737418 37.524523 100.615457 -87.120503 -74.106161 15.293103 -32.411458 -49.797594 13.133617 12.374500 0.434455 35.508110 17.457890 -11.477634 -60.115093 36.857376 -51.150341 7.318192 19.794626 -25.901729 
46.278828 30.593948 91.034714 -78.845171 3.244351 80.745149 20.082569 8.851414 -1.141593 -0.159247 10.923156 34.877053 -3.134603 2.260430 -25.381272 nan nan nan -15.257942 -12.877495 -10.871646 0.422382 -13.220572 20.672905 8.752806 0.529261 -5.683296 nan nan nan -4.996735 3.251335 10.877734 6.234265 -5.287537 7.943129 2.516564 0.653166 -3.738236 2.668193 -18.468290 3.630417 6.303110 -32.862971 16.265088 -3.577578 -19.612884 -3.125179 -80.459360 -46.718540 37.635488 97.081277 -87.123057 -70.715877 15.609507 -32.424100 -49.816785 13.261704 12.278508 0.379616 35.563832 17.468745 -11.329454 -60.219547 36.848131 -51.200538 7.222887 19.734246 -25.885682 
46.273655 30.617765 91.016403 -78.863629 3.251938 80.755521 20.121839 8.800607 -1.168052 -0.215365 10.904045 34.935684 -3.159379 2.263664 -25.422645 nan nan nan -15.278207 -12.902123 -10.980879 0.457726 -13.233205 20.859306 8.822793 0.663544 -5.688253 nan nan nan -4.997595 3.247571 10.951588 6.210429 -5.235255 7.878785 2.461796 0.774027 -3.677541 2.996179 -18.238832 3.362186 6.158226 -32.772951 16.414952 -3.541114 -19.682371 -3.167763 -80.567101 -46.812127 37.903742 92.586378 -87.094780 -66.412400 15.918070 -32.512979 -49.792628 13.398480 12.075497 0.250389 35.588348 17.412548 -11.166768 -60.256222 36.889870 -51.366383 6.997635 19.826280 -25.890621 
46.258362 30.636797 90.987518 -78.908424 3.264441 80.790188 20.183361 8.780440 -1.187778 -0.305925 10.930550 34.992280 -3.123800 2.311682 -25.511815 nan nan nan -15.255808 -12.860547 -11.098210 0.498795 -13.150978 21.006826 8.755578 0.659718 -5.761283 nan nan nan -5.004546 3.239856 11.009721 6.220557 -5.173057 7.855165 2.458258 0.903405 -3.672758 3.178750 -18.155340 3.173139 6.119556 -32.474213 16.400223 -3.571038 -19.795006 -3.162292 -80.621348 -46.849556 38.081490 90.448991 -86.982231 -64.422325 15.868869 -32.564708 -49.799400 13.433317 11.949203 0.137589 35.288007 17.093587 -11.259895 -60.166686 36.947574 -51.239046 8.284010 20.199321 -25.241275 
46.241001 30.655060 90.951157 -78.952687 3.258980 80.814573 20.215845 8.795762 -1.215034 -0.340805 10.965122 35.056802 -3.126314 2.372231 -25.604647 nan nan nan -15.241818 -12.834614 -11.230998 0.487368 -13.094147 21.203505 8.654238 0.657521 -5.943899 nan nan nan -4.942436 3.182775 11.113345 6.215028 -5.145701 7.764739 2.452330 0.916658 -3.654602 3.118343 -17.942319 3.097536 6.121538 -32.163319 16.291165 -3.620501 -19.774285 -3.138364 -80.529537 -46.746436 37.952353 92.006393 -87.003376 -65.914488 15.946655 -32.386692 -50.160604 13.371089 11.930136 0.100922 35.402852 17.105649 -11.167671 -60.340206 37.048590 -51.197838 8.297700 20.211811 -25.231117 
46.226368 30.683805 90.922295 -78.993583 3.218835 80.861573 20.186836 8.832655 -1.282547 -0.306876 10.955085 35.154310 -3.103628 2.342561 -25.687040 nan nan nan -15.252005 -12.854444 -11.406921 0.430610 -13.124385 21.426861 8.681216 0.747881 -6.070629 nan nan nan -4.884300 3.105703 11.221011 6.166453 -5.128360 7.596168 2.424899 0.915589 -3.612260 3.047675 -17.653145 3.080091 6.116115 -31.921329 16.267552 -3.642921 -19.582826 -3.188604 -80.545616 -46.612557 37.852016 92.393428 -87.185711 -66.257371 16.266838 -32.056622 -50.366469 13.334074 11.904808 0.147697 35.794716 17.322789 -10.931438 -60.566563 37.119031 -51.384391 7.264359 20.044319 -25.498121 
46.223656 30.707003 90.903542 -79.001563 3.168020 80.916000 20.118406 8.814199 -1.366496 -0.231711 10.945437 35.236638 -3.110800 2.210863 -25.751231 nan nan nan -15.302184 -12.872531 -11.583972 0.389149 -13.206388 21.654258 8.738557 0.825668 -6.129022 nan nan nan -4.857078 3.053911 11.209298 6.132054 -5.115201 7.597147 2.410466 0.914760 -3.603440 3.011781 -17.380794 3.100904 6.146624 -31.674901 16.175587 -3.741034 -19.334908 -3.301044 -80.663471 -46.542227 37.839550 89.040733 -87.397048 -62.988007 16.355690 -32.056401 -50.170434 13.375138 11.867326 0.290590 35.965527 17.490668 -10.834017 -60.757135 37.154563 -51.675238 6.836699 19.896288 -25.434215 
46.198132 30.720535 90.879158 -79.007719 3.123856 80.873938 20.090050 8.727315 -1.292081 -0.279763 10.952342 35.233756 -3.172614 2.248194 -25.875649 nan nan nan -15.397757 -12.837332 -11.631004 0.411923 -13.267666 21.887087 8.719442 0.882924 -6.285816 nan nan nan -4.820313 3.137100 11.035178 6.129785 -5.101294 7.971585 2.410625 0.800971 -3.727905 2.967677 -17.120402 3.185391 6.029366 -31.479225 16.121618 -3.844975 -19.394001 -3.295361 -80.556731 -46.517818 37.658037 85.334083 -87.366565 -59.350682 16.347823 -32.298054 -50.013895 13.376512 11.974933 0.437706 35.878928 17.470335 -10.984125 -60.784887 37.151424 -51.515223 7.024914 19.898520 -25.621181 
46.155022 30.730316 90.832237 -79.031245 3.063909 80.801865 20.083291 8.659940 -1.156218 -0.385183 10.971847 35.211632 -3.170753 2.313833 -26.004868 nan nan nan -15.537718 -12.811056 -11.681970 0.494093 -13.212769 22.193704 8.674246 0.880745 -6.482102 nan nan nan -4.826491 3.287819 10.801201 6.154245 -5.064656 8.510576 2.446205 0.649517 -3.934966 2.859921 -17.003334 3.278324 5.880620 -31.170030 16.020208 -3.966273 -19.631283 -3.192432 -80.262437 -46.552393 37.380603 83.183996 -87.201671 -57.403034 15.877509 -32.457087 -49.787769 13.341829 12.140099 0.574985 35.597391 17.248292 -11.244993 -60.680545 37.060867 -51.661896 8.106632 20.189266 -25.678491 
46.120293 30.751671 90.783043 -79.045002 3.028708 80.781446 20.096289 8.644288 -1.115229 -0.422700 10.949819 35.233256 -3.139161 2.284702 -26.124312 nan nan nan -15.629108 -12.772025 -11.834448 0.504748 -13.250886 22.573672 8.664655 0.925495 -6.660253 nan nan nan -4.819164 3.338965 10.779196 6.163244 -5.006918 8.598091 2.450419 0.571050 -3.938665 2.864724 -16.839964 3.234573 5.722165 -31.086405 16.007409 -3.988022 -19.701416 -3.171852 -80.146704 -46.554659 37.260245 81.627116 -87.160655 -55.955895 15.678049 -32.528286 -49.923977 13.293799 12.150275 0.549279 35.863293 17.286260 -11.064249 -60.899805 37.064066 -52.042305 7.533037 20.120347 -26.263139 
